<?xml version="1.0" encoding="utf-8"?>
<!-- Generator: Adobe Illustrator 26.5.0, SVG Export Plug-In . SVG Version: 6.00 Build 0)  -->
<svg version="1.2" baseProfile="tiny" id="Layer_1" xmlns="http://www.w3.org/2000/svg" xmlns:xlink="http://www.w3.org/1999/xlink"
	 x="0px" y="0px" viewBox="0 0 560 560" overflow="visible" xml:space="preserve">
<path d="M162.78,376.49c-15.44,38.48,8.58,94.47,63.86,71.04c0,0,0-66.58,0-66.58C220.74,355.06,176.68,341.83,162.78,376.49z
	 M177.39,99.93c-11.13-22.15-45.35-21.25-54.99,3.24c-9.64,24.49-10.28,56.79-7.18,81.06L177.39,99.93z M427.51,471.65h33.71
	C414.2,515.69,351,542.66,281.5,542.66c-145.25,0-263.01-117.75-263.01-263.01c0-60.83,20.66-116.83,55.33-161.38
	c-8.84,40.66-4.01,91.9,15.89,121.69c25.33,39.93,94.95,39.75,120.84,1.52c27.95-33.09,28.18-128.4,1.37-165.38
	c-12.55-17.31-33.87-26.61-55.8-27.72c37.27-20.25,79.97-31.75,125.37-31.75c145.25,0,263.01,117.75,263.01,263.01
	c0,70.87-28.04,135.19-73.62,182.48l-57.62-77.36l54.71-72.71h-51.68l-28.59,38.39l-28.59-38.39h-51.68l54.71,72.71l-64.71,86.89
	h50.46l39.81-52.91L427.51,471.65z M269.2,270.9h-42.56v66.88C81.73,245.12,57.98,553.35,269.2,477.32V270.9z M321.78,110.28V43.4
	h-42.56v206.42C490.44,325.85,466.69,17.62,321.78,110.28z M385.64,148.99c-13.9-34.66-57.96-21.43-63.86,4.47c0,0,0,66.58,0,66.58
	C377.06,243.45,401.08,187.47,385.64,148.99z M179.25,216.1c9.15-23.7,10.21-56.86,7.38-81.35l-62.3,83.4
	C135.13,241.03,170.1,239.81,179.25,216.1z M226.64,447.53c0,0,0-66.58,0-66.58c-5.9-25.89-49.96-39.13-63.86-4.47
	C147.34,414.97,171.36,470.95,226.64,447.53z M321.78,220.03c55.28,23.42,79.3-32.56,63.86-71.04
	c-13.9-34.66-57.96-21.43-63.86,4.47C321.78,153.45,321.78,220.03,321.78,220.03z"/>
</svg>
